<svg data-v-423bf9ae="" xmlns="http://www.w3.org/2000/svg" viewBox="0 0 334 90" class="iconLeft"><!----><!----><!----><g data-v-423bf9ae="" id="8765741d-46bd-42fd-96ea-6c87199d4bcc" fill="#521515" transform="matrix(4.285714285714286,0,0,4.285714285714286,109.40000714787415,5.357142857142861)"><path d="M2.52 3.56L2.52 3.56L2.52 3.56Q3.64 2.79 4.05 2.79L4.05 2.79L4.05 2.79Q4.45 2.79 5.30 3.52L5.30 3.52L5.30 3.52Q6.15 4.26 6.36 4.56L6.36 4.56L6.36 4.56Q6.57 4.86 6.57 5.35L6.57 5.35L6.57 5.35Q6.57 6.30 6.41 6.48L6.41 6.48L6.41 6.48Q6.12 6.93 5.50 7.53L5.50 7.53L5.50 7.53Q6.36 8.34 6.57 8.78L6.57 8.78L6.57 8.78Q6.68 9.07 6.80 10.56L6.80 10.56L6.80 10.56Q6.93 12.05 6.93 12.75L6.93 12.75L4.83 12.75L4.83 12.75Q4.83 12.12 4.72 10.78L4.72 10.78L4.72 10.78Q4.61 9.44 4.47 9.16L4.47 9.16L4.47 9.16Q4.34 8.88 4.16 8.67L4.16 8.67L2.91 8.67L2.91 12.75L0.98 12.75L0.98 6.62L0.98 6.62Q0.98 5.49 0.82 5.05L0.82 5.05L0.82 5.05Q0.66 4.61 0.14 3.96L0.14 3.96L1.82 2.79L1.82 2.79Q2.27 3.08 2.52 3.56ZM2.91 5.95L2.91 5.95L2.91 7.03L3.46 7.03L3.46 7.03Q3.65 7.03 3.96 6.72L3.96 6.72L3.96 6.72Q4.27 6.41 4.36 6.19L4.36 6.19L4.36 6.19Q4.45 5.98 4.45 5.74L4.45 5.74L4.45 5.74Q4.45 5.50 4.36 5.31L4.36 5.31L4.36 5.31Q4.27 5.12 4.10 4.89L4.10 4.89L4.10 4.89Q3.93 4.65 3.82 4.65L3.82 4.65L3.82 4.65Q3.44 4.65 2.87 4.83L2.87 4.83L2.87 4.83Q2.91 5.38 2.91 5.95ZM13.13 8.96L13.13 8.96L13.13 9.46L9.74 9.46L9.74 9.46Q9.74 10.30 9.95 10.79L9.95 10.79L9.95 10.79Q10.02 10.96 10.21 11.14L10.21 11.14L10.21 11.14Q10.39 11.31 10.58 11.31L10.58 11.31L10.58 11.31Q10.78 11.31 11.07 10.98L11.07 10.98L11.07 10.98Q11.37 10.64 11.54 10.16L11.54 10.16L12.98 11.19L12.98 11.19Q12.60 11.89 11.82 12.40L11.82 12.40L11.82 12.40Q11.05 12.92 10.57 12.92L10.57 12.92L10.57 12.92Q10.09 12.92 9.19 12.18L9.19 12.18L9.19 12.18Q8.29 11.44 8.09 11.02L8.09 11.02L8.09 11.02Q7.90 10.61 7.90 8.98L7.90 8.98L7.90 8.98Q7.90 7.35 8.09 6.94L8.09 6.94L8.09 6.94Q8.29 6.52 9.19 5.78L9.19 5.78L9.19 5.78Q10.09 5.04 10.51 5.04L10.51 5.04L10.51 5.04Q10.93 5.04 11.84 5.78L11.84 5.78L11.84 5.78Q12.74 6.52 12.94 6.94L12.94 6.94L12.94 6.94Q13.13 7.35 13.13 8.96ZM11.19 7.20L11.19 7.20L11.19 7.20Q11.09 7.01 10.87 6.83L10.87 6.83L10.87 6.83Q10.65 6.65 10.46 6.65L10.46 6.65L10.46 6.65Q10.28 6.65 10.04 7.02L10.04 7.02L10.04 7.02Q9.80 7.39 9.74 8.13L9.74 8.13L11.34 8.13L11.34 8.13Q11.30 7.39 11.19 7.20ZM18.02 6.68L16.45 6.68L16.45 9.77L16.45 9.77Q16.45 10.43 16.90 10.98L16.90 10.98L16.90 10.98Q17.35 11.52 18.13 11.84L18.13 11.84L16.59 12.92L16.59 12.92Q15.75 12.53 15.18 11.84L15.18 11.84L15.18 11.84Q14.60 11.14 14.60 10.37L14.60 10.37L14.60 6.68L13.90 6.68L13.90 5.63L14.60 5.46L14.60 5.46Q14.57 4.77 14.43 4.38L14.43 4.38L14.43 4.38Q14.29 3.98 13.90 3.60L13.90 3.60L15.44 2.52L15.44 2.52Q16.45 3.32 16.45 4.79L16.45 4.79L16.45 5.21L18.02 5.21L18.02 6.68ZM21.24 7.38L21.24 12.75L19.39 12.75L19.39 7.92L19.39 7.92Q19.39 7.21 19.21 6.81L19.21 6.81L19.21 6.81Q19.04 6.41 18.69 6.12L18.69 6.12L20.23 5.04L20.23 5.04Q20.73 5.46 21 6.02L21 6.02L21 6.02Q22.04 5.04 22.46 5.04L22.46 5.04L22.46 5.04Q22.74 5.04 23.31 5.56L23.31 5.56L23.31 5.56Q23.88 6.08 23.98 6.69L23.98 6.69L22.48 7.77L22.48 7.77Q22.47 7.43 22.32 7.11L22.32 7.11L22.32 7.11Q22.18 6.79 22.06 6.79L22.06 6.79L22.06 6.79Q21.83 6.79 21.24 7.38L21.24 7.38ZM26.54 11.10L26.54 11.10L26.54 11.10Q26.75 11.31 26.88 11.31L26.88 11.31L26.88 11.31Q27.01 11.31 27.22 11.10L27.22 11.10L27.22 11.10Q27.44 10.89 27.54 10.72L27.54 10.72L27.54 10.72Q27.72 10.42 27.72 8.99L27.72 8.99L27.72 8.99Q27.72 7.56 27.54 7.24L27.54 7.24L27.54 7.24Q27.44 7.07 27.22 6.86L27.22 6.86L27.22 6.86Q27.01 6.65 26.88 6.65L26.88 6.65L26.88 6.65Q26.75 6.65 26.54 6.86L26.54 6.86L26.54 6.86Q26.32 7.07 26.22 7.24L26.22 7.24L26.22 7.24Q26.04 7.55 26.04 8.97L26.04 8.97L26.04 8.97Q26.04 10.40 26.22 10.72L26.22 10.72L26.22 10.72Q26.32 10.89 26.54 11.10ZM28.15 12.24L28.15 12.24L28.15 12.24Q27.29 12.92 26.88 12.92L26.88 12.92L26.88 12.92Q26.47 12.92 25.61 12.24L25.61 12.24L25.61 12.24Q24.75 11.55 24.56 11.21L24.56 11.21L24.56 11.21Q24.26 10.70 24.26 8.97L24.26 8.97L24.26 8.97Q24.26 7.25 24.56 6.75L24.56 6.75L24.56 6.75Q24.75 6.41 25.61 5.73L25.61 5.73L25.61 5.73Q26.47 5.04 26.88 5.04L26.88 5.04L26.88 5.04Q27.29 5.04 28.15 5.73L28.15 5.73L28.15 5.73Q29.01 6.41 29.20 6.75L29.20 6.75L29.20 6.75Q29.50 7.25 29.50 8.97L29.50 8.97L29.50 8.97Q29.50 10.70 29.20 11.21L29.20 11.21L29.20 11.21Q29.01 11.55 28.15 12.24ZM32.44 3.56L32.44 3.56L32.44 3.56Q33.39 2.79 33.77 2.79L33.77 2.79L33.77 2.79Q34.16 2.79 35.01 3.52L35.01 3.52L35.01 3.52Q35.85 4.26 36.06 4.56L36.06 4.56L36.06 4.56Q36.27 4.86 36.27 5.54L36.27 5.54L36.27 5.54Q36.27 6.23 36.06 6.57L36.06 6.57L36.06 6.57Q35.85 6.92 35.29 7.45L35.29 7.45L35.29 7.45Q36.18 8.18 36.54 8.67L36.54 8.67L36.54 8.67Q36.69 8.92 36.69 9.61L36.69 9.61L36.69 9.61Q36.69 10.30 36.54 10.51L36.54 10.51L36.54 10.51Q36.29 11.06 35.32 11.91L35.32 11.91L35.32 11.91Q34.36 12.75 33.80 12.75L33.80 12.75L30.90 12.75L30.90 6.76L30.90 6.76Q30.90 5.63 30.74 5.17L30.74 5.17L30.74 5.17Q30.58 4.70 30.06 4.07L30.06 4.07L31.91 2.79L31.91 2.79Q32.24 3.07 32.44 3.56ZM34.05 8.50L32.83 8.50L32.83 11.06L33.80 11.06L33.80 11.06Q33.98 11.06 34.24 10.77L34.24 10.77L34.24 10.77Q34.51 10.49 34.63 10.27L34.63 10.27L34.63 10.27Q34.75 10.05 34.75 9.38L34.75 9.38L34.75 9.38Q34.75 8.92 34.05 8.50L34.05 8.50ZM32.83 5.95L32.83 5.95L32.83 6.94L33.54 6.94L33.54 6.94Q33.70 6.94 33.93 6.67L33.93 6.67L33.93 6.67Q34.16 6.40 34.24 6.19L34.24 6.19L34.24 6.19Q34.33 5.98 34.33 5.68L34.33 5.68L34.33 5.68Q34.33 5.39 34.05 5.02L34.05 5.02L34.05 5.02Q33.77 4.65 33.53 4.65L33.53 4.65L33.53 4.65Q33.29 4.65 32.79 4.83L32.79 4.83L32.79 4.83Q32.83 5.38 32.83 5.95ZM37.88 10.65L37.88 2.25L39.73 2.25L39.73 10.05L39.73 10.05Q39.73 10.77 39.90 11.16L39.90 11.16L39.90 11.16Q40.07 11.55 40.43 11.84L40.43 11.84L38.89 12.92L38.89 12.92Q37.88 12.12 37.88 10.65L37.88 10.65ZM43.34 11.10L43.34 11.10L43.34 11.10Q43.55 11.31 43.68 11.31L43.68 11.31L43.68 11.31Q43.81 11.31 44.02 11.10L44.02 11.10L44.02 11.10Q44.24 10.89 44.34 10.72L44.34 10.72L44.34 10.72Q44.52 10.42 44.52 8.99L44.52 8.99L44.52 8.99Q44.52 7.56 44.34 7.24L44.34 7.24L44.34 7.24Q44.24 7.07 44.02 6.86L44.02 6.86L44.02 6.86Q43.81 6.65 43.68 6.65L43.68 6.65L43.68 6.65Q43.55 6.65 43.34 6.86L43.34 6.86L43.34 6.86Q43.12 7.07 43.02 7.24L43.02 7.24L43.02 7.24Q42.84 7.55 42.84 8.97L42.84 8.97L42.84 8.97Q42.84 10.40 43.02 10.72L43.02 10.72L43.02 10.72Q43.12 10.89 43.34 11.10ZM44.95 12.24L44.95 12.24L44.95 12.24Q44.09 12.92 43.68 12.92L43.68 12.92L43.68 12.92Q43.27 12.92 42.41 12.24L42.41 12.24L42.41 12.24Q41.55 11.55 41.36 11.21L41.36 11.21L41.36 11.21Q41.06 10.70 41.06 8.97L41.06 8.97L41.06 8.97Q41.06 7.25 41.36 6.75L41.36 6.75L41.36 6.75Q41.55 6.41 42.41 5.73L42.41 5.73L42.41 5.73Q43.27 5.04 43.68 5.04L43.68 5.04L43.68 5.04Q44.09 5.04 44.95 5.73L44.95 5.73L44.95 5.73Q45.81 6.41 46.00 6.75L46.00 6.75L46.00 6.75Q46.30 7.25 46.30 8.97L46.30 8.97L46.30 8.97Q46.30 10.70 46.00 11.21L46.00 11.21L46.00 11.21Q45.81 11.55 44.95 12.24ZM50.43 7.32L50.43 7.32L50.43 7.32Q50.33 7.15 50.04 6.97L50.04 6.97L50.04 6.97Q49.74 6.79 49.59 6.79L49.59 6.79L49.59 6.79Q49.43 6.79 49.26 6.97L49.26 6.97L49.26 6.97Q49.08 7.15 49.03 7.31L49.03 7.31L49.03 7.31Q48.92 7.53 48.92 8.71L48.92 8.71L48.92 8.71Q48.92 9.88 49.03 10.09L49.03 10.09L49.03 10.09Q49.08 10.23 49.26 10.42L49.26 10.42L49.26 10.42Q49.43 10.61 49.59 10.61L49.59 10.61L49.59 10.61Q49.74 10.61 50.04 10.42L50.04 10.42L50.04 10.42Q50.34 10.23 50.44 10.07L50.44 10.07L50.44 10.07Q50.54 9.91 50.54 8.70L50.54 8.70L50.54 8.70Q50.54 7.49 50.43 7.32ZM50.99 5.21L52.36 5.21L52.36 12.29L52.36 12.29Q52.36 14.08 52.20 14.43L52.20 14.43L52.20 14.43Q52.04 14.77 51.07 15.51L51.07 15.51L51.07 15.51Q50.11 16.25 49.62 16.25L49.62 16.25L49.62 16.25Q49.14 16.25 48.41 15.77L48.41 15.77L48.41 15.77Q47.68 15.29 47.32 14.66L47.32 14.66L48.76 13.66L48.90 13.85L48.90 13.85Q49.42 14.50 49.62 14.50L49.62 14.50L49.62 14.50Q49.83 14.50 50.08 14.32L50.08 14.32L50.08 14.32Q50.34 14.14 50.43 13.94L50.43 13.94L50.43 13.94Q50.53 13.73 50.53 12.22L50.53 12.22L50.57 11.68L50.57 11.68Q49.62 12.36 49.27 12.36L49.27 12.36L49.27 12.36Q48.93 12.36 48.19 11.62L48.19 11.62L48.19 11.62Q47.45 10.88 47.29 10.51L47.29 10.51L47.29 10.51Q47.14 10.15 47.14 8.71L47.14 8.71L47.14 8.71Q47.14 7.27 47.29 6.89L47.29 6.89L47.29 6.89Q47.45 6.52 48.19 5.78L48.19 5.78L48.19 5.78Q48.93 5.04 49.32 5.04L49.32 5.04L49.32 5.04Q49.71 5.04 50.82 5.94L50.82 5.94L50.99 5.21Z"></path></g><!----><g data-v-423bf9ae="" id="d91b6a73-4299-4cab-955f-87be850e3a61" transform="matrix(2.8125,0,0,2.8125,0,0)" stroke="none" fill="#FC1414"><path d="M9.382 8.675h13.943v13.943L32 31.293V0H.707zM22.618 23.325H8.675V9.382L0 .707V32h31.293z"></path></g><!----></svg>